<?xml version="1.0" encoding="utf-8"?>
<!-- Generator: Adobe Illustrator 24.2.0, SVG Export Plug-In . SVG Version: 6.00 Build 0)  -->
<svg version="1.1" id="Layer_1" xmlns="http://www.w3.org/2000/svg" xmlns:xlink="http://www.w3.org/1999/xlink" x="0px" y="0px"
	 viewBox="0 0 512 512" style="enable-background:new 0 0 512 512;" xml:space="preserve">
<style type="text/css">
	.st0{opacity:0.13;fill:none;stroke:#FFFFFF;stroke-width:32;stroke-linejoin:round;}
	.st1{opacity:0.13;fill:none;stroke:#FFFFFF;stroke-width:32;stroke-linecap:round;stroke-linejoin:round;}
</style>
<path class="st0" d="M80,128h352c26.5,0,48,21.5,48,48v224c0,26.5-21.5,48-48,48H80c-26.5,0-48-21.5-48-48V176
	C32,149.5,53.5,128,80,128z"/>
<path class="st1" d="M368,95.7V82c0-10-14.3-18-32-18H176c-17.7,0-32,8-32,14.4v17.2"/>
<line class="st1" x1="448.1" y1="240" x2="63.7" y2="240"/>
<path class="st1" d="M320,272v6c0,1.1-3.6,2-8,2H200c-4.4,0-8-0.9-8-2v-6"/>
</svg>
