<?xml version="1.0" encoding="utf-8"?>
<!-- Generator: Adobe Illustrator 24.2.1, SVG Export Plug-In . SVG Version: 6.00 Build 0)  -->
<svg version="1.1" id="Layer_1" xmlns="http://www.w3.org/2000/svg" xmlns:xlink="http://www.w3.org/1999/xlink" x="0px" y="0px"
	 viewBox="0 0 512 512" style="enable-background:new 0 0 512 512;" xml:space="preserve">
<style type="text/css">
	.st0{opacity:0.13;fill:none;stroke:#FFFFFF;stroke-width:32;stroke-linecap:round;stroke-miterlimit:10;}
	.st1{opacity:0.13;fill:none;stroke:#FFFFFF;stroke-width:32;stroke-linecap:round;stroke-linejoin:round;}
</style>
<path class="st0" d="M436.7,184.1c-10.6,10.5-27.7,10.5-38.3,0l-22.5-22.5c-10.5-10.6-10.5-27.7,0-38.3l50.9-50.9
	c0.3-0.3,0.3-0.9,0-1.2c-0.1-0.1-0.2-0.1-0.3-0.2C393.7,57,351.1,64.2,324,91c-25.9,25.7-27.4,64.3-17.9,98
	c2.7,9.8-0.2,20.3-7.7,27.1l-173,160.8c-16.8,15-18.2,40.8-3.2,57.6c15,16.8,40.8,18.2,57.6,3.2c1.1-1,2.2-2.1,3.2-3.2l162.1-173.3
	c6.8-7.3,17.1-10.3,26.8-7.7c33.5,8.9,71.5,7.3,97.1-17.9c27.5-27.1,33.4-74.9,20.1-102.3c-0.2-0.4-0.7-0.6-1.1-0.4
	c-0.1,0-0.2,0.1-0.2,0.2L436.7,184.1z"/>
<path class="st1" d="M343.8,329.8c37.6,33.1,83.2,72.3,101,86.3c5.3,4.1,6,11.5,1.7,16.4c-0.3,0.3-0.5,0.6-0.8,0.8l-30.6,29
	c-5.1,4.7-13.2,4.6-18.2-0.2c-0.2-0.1-0.3-0.3-0.5-0.5c-15.2-16.6-56.1-58.2-91.1-92.9"/>
<path class="st1" d="M17.3,193.5l29.4-28.7c0.9-0.9,2.1-1.4,3.4-1.4c1.3,0,2.5,0.5,3.4,1.4l0,0c2.2,2.1,5.2,3.2,8.2,2.8
	c3.8-0.4,7.9-1.6,10.6-4.1c6-5.8-0.9-17.2,4.3-24.5c6-8,12.6-15.6,19.8-22.6c6-5.9,29.8-28.3,69.9-44.5c12.8-5.2,26.5-7.8,40.3-7.8
	c22.6,0,40,10,46.3,15.7c3.8,3.6,7.2,7.5,10.3,11.6c-3-1.1-6.1-2-9.2-2.8c-6.6-1.4-13.3-1.8-20-1.3c-13.3,1.1-29.4,7.3-38,14
	c-13.9,11-19.9,25.7-20.8,44.7c-0.7,14.1,2.7,22.1,36.1,55.5c2.4,2.6,2.2,6.7-0.3,9.2l-18.2,18c-2.6,2.6-6.9,2.6-9.5,0.1
	c-21.9-21.9-36.7-33.1-45-38.2s-15.1-6.5-18.3-6.9c-6.3-0.6-12.7,0.7-18.3,3.9c-1,0.5-1.9,1.2-2.6,2c-5.4,5.6-5.3,14.6,0.3,20
	c0,0,0.1,0.1,0.1,0.1l1.7,1.6c1.8,1.8,1.9,4.7,0.1,6.5c0,0-0.1,0.1-0.1,0.1l-29.4,28.7c-0.9,0.9-2.1,1.4-3.4,1.4
	c-1.3,0-2.5-0.5-3.4-1.4l-47.6-46.4C15.6,198.3,15.6,195.4,17.3,193.5z"/>
</svg>
