<?xml version="1.0" encoding="utf-8"?>
<!-- Generator: Adobe Illustrator 24.2.1, SVG Export Plug-In . SVG Version: 6.00 Build 0)  -->
<svg version="1.1" id="Layer_1" xmlns="http://www.w3.org/2000/svg" xmlns:xlink="http://www.w3.org/1999/xlink" x="0px" y="0px"
	 viewBox="0 0 512 512" style="enable-background:new 0 0 512 512;" xml:space="preserve">
<style type="text/css">
	
		.st0{opacity:0.13;fill:#FFFFFF;stroke:#FFFFFF;stroke-width:32;stroke-linecap:round;stroke-linejoin:round;enable-background:new    ;}
</style>
<path class="st0" d="M277.4,247c-1.1-2-2.5-3.8-4.1-5.5L255,223.4c-1.9-1.9-4.1-3.5-6.6-4.6c-7.9-3.5-17.1-1.8-23.3,4.3
	c-6.4,6.3-18,17.7-39,38.4C146,301.3,71.4,367.9,37.7,396.3c-6.8,5.7-7.7,15.8-2,22.5c0.3,0.3,0.6,0.7,0.9,1l39,39.4
	c6.3,6.3,16.5,6.3,22.8,0c0.3-0.3,0.6-0.6,0.9-0.9c29.2-34.4,96.3-109,136-148.2c20.4-20.1,31.8-31.6,38.3-37.9
	C280.2,265.5,281.7,255.3,277.4,247z"/>
<path class="st0" d="M486.4,193l-34.3-34c-1.1-1.1-2.5-1.6-4-1.6s-2.9,0.5-4,1.6l0,0c-2.5,2.5-6,3.7-9.5,3.3
	c-4.5-0.5-9.3-1.9-12.3-4.9c-7-6.9,1.1-20.4-5.1-29c-7-9.5-14.7-18.4-23.1-26.7c-7.1-7-34.8-33.5-81.5-52.5
	c-14.9-6.1-30.9-9.2-47-9.2c-26.4,0-46.6,11.8-54,18.5c-5.9,5.3-12,13.8-12,13.8c3.5-1.3,7.1-2.4,10.8-3.2
	c7.6-1.6,15.5-2.1,23.3-1.5c15.6,1.3,34.3,8.6,44.4,16.5c16.2,13,23.2,30.4,24.3,52.8c0.8,16.7-15.2,37.8-30.4,54.9
	c-2.8,3.1-2.6,7.9,0.4,10.8l21.2,21.2c3.1,3,8,3.1,11.1,0.1c13.9-13.5,31.1-28.5,40.8-34.5s17.6-7.7,21.4-8.1
	c7.4-0.7,14.9,0.9,21.3,4.6c1.1,0.6,2.2,1.4,3.1,2.4c6.5,6.6,6.1,17.3-0.5,23.7l-2,1.9c-2.2,2.1-2.2,5.6-0.1,7.8c0,0,0,0,0.1,0.1
	l34.3,34c1.1,1,2.5,1.6,4,1.6s2.9-0.5,4-1.6l55.5-54.9C488.6,198.8,488.6,195.2,486.4,193z"/>
</svg>
